<?xml version="1.0" encoding="UTF-8"?><svg xmlns="http://www.w3.org/2000/svg" xmlns:xlink="http://www.w3.org/1999/xlink" fill-opacity="1" color-rendering="auto" color-interpolation="auto" text-rendering="auto" stroke="black" stroke-linecap="square" width="288" stroke-miterlimit="10" shape-rendering="auto" stroke-opacity="1" fill="black" stroke-dasharray="none" font-weight="normal" stroke-width="1" height="243" font-family="'Dialog'" font-style="normal" stroke-linejoin="miter" font-size="12px" stroke-dashoffset="0" image-rendering="auto">
  <!--Generated by ySVG 2.5-->
  <defs id="genericDefs"/>
  <g>
    <defs id="defs1">
      <clipPath clipPathUnits="userSpaceOnUse" id="clipPath1">
        <path d="M0 0 L288 0 L288 243 L0 243 L0 0 Z"/>
      </clipPath>
      <clipPath clipPathUnits="userSpaceOnUse" id="clipPath2">
        <path d="M5 -15 L293 -15 L293 228 L5 228 L5 -15 Z"/>
      </clipPath>
    </defs>
    <g fill="white" text-rendering="geometricPrecision" shape-rendering="geometricPrecision" transform="translate(-5,15)" stroke="white">
      <rect x="5" width="288" height="243" y="-15" clip-path="url(#clipPath2)" stroke="none"/>
    </g>
    <g fill="rgb(255,204,0)" text-rendering="geometricPrecision" shape-rendering="geometricPrecision" transform="matrix(1,0,0,1,-5,15)" stroke="rgb(255,204,0)">
      <rect x="181.273" width="42.2715" height="30" y="0" clip-path="url(#clipPath2)" stroke="none"/>
    </g>
    <g text-rendering="geometricPrecision" stroke-miterlimit="1.45" shape-rendering="geometricPrecision" transform="matrix(1,0,0,1,-5,15)" stroke-linecap="butt">
      <rect fill="none" x="181.273" width="42.2715" height="30" y="0" clip-path="url(#clipPath2)"/>
      <text x="188.273" xml:space="preserve" y="19.1543" clip-path="url(#clipPath2)" font-family="sans-serif" stroke="none">Num</text>
    </g>
    <g fill="rgb(255,204,0)" text-rendering="geometricPrecision" shape-rendering="geometricPrecision" transform="matrix(1,0,0,1,-5,15)" stroke="rgb(255,204,0)">
      <rect x="97.9416" width="35.9961" height="30" y="0" clip-path="url(#clipPath2)" stroke="none"/>
    </g>
    <g text-rendering="geometricPrecision" stroke-miterlimit="1.45" shape-rendering="geometricPrecision" transform="matrix(1,0,0,1,-5,15)" stroke-linecap="butt">
      <rect fill="none" x="97.9416" width="35.9961" height="30" y="0" clip-path="url(#clipPath2)"/>
      <text x="104.9416" xml:space="preserve" y="19.1543" clip-path="url(#clipPath2)" font-family="sans-serif" stroke="none">Ord</text>
    </g>
    <g fill="rgb(255,204,0)" text-rendering="geometricPrecision" shape-rendering="geometricPrecision" transform="matrix(1,0,0,1,-5,15)" stroke="rgb(255,204,0)">
      <rect x="105.8376" width="40.4082" height="30" y="61" clip-path="url(#clipPath2)" stroke="none"/>
    </g>
    <g text-rendering="geometricPrecision" stroke-miterlimit="1.45" shape-rendering="geometricPrecision" transform="matrix(1,0,0,1,-5,15)" stroke-linecap="butt">
      <rect fill="none" x="105.8376" width="40.4082" height="30" y="61" clip-path="url(#clipPath2)"/>
      <text x="112.8376" xml:space="preserve" y="80.1543" clip-path="url(#clipPath2)" font-family="sans-serif" stroke="none">Real</text>
    </g>
    <g fill="rgb(255,204,0)" text-rendering="geometricPrecision" shape-rendering="geometricPrecision" transform="matrix(1,0,0,1,-5,15)" stroke="rgb(255,204,0)">
      <rect x="20.0001" width="48.4824" height="30" y="61" clip-path="url(#clipPath2)" stroke="none"/>
    </g>
    <g text-rendering="geometricPrecision" stroke-miterlimit="1.45" shape-rendering="geometricPrecision" transform="matrix(1,0,0,1,-5,15)" stroke-linecap="butt">
      <rect fill="none" x="20.0001" width="48.4824" height="30" y="61" clip-path="url(#clipPath2)"/>
      <text x="27.0001" xml:space="preserve" y="80.1543" clip-path="url(#clipPath2)" font-family="sans-serif" stroke="none">Enum</text>
    </g>
    <g fill="rgb(255,204,0)" text-rendering="geometricPrecision" shape-rendering="geometricPrecision" transform="matrix(1,0,0,1,-5,15)" stroke="rgb(255,204,0)">
      <rect x="29.1238" width="60.4707" height="30" y="122" clip-path="url(#clipPath2)" stroke="none"/>
    </g>
    <g text-rendering="geometricPrecision" stroke-miterlimit="1.45" shape-rendering="geometricPrecision" transform="matrix(1,0,0,1,-5,15)" stroke-linecap="butt">
      <rect fill="none" x="29.1238" width="60.4707" height="30" y="122" clip-path="url(#clipPath2)"/>
      <text x="36.1238" xml:space="preserve" y="141.1543" clip-path="url(#clipPath2)" font-family="sans-serif" stroke="none">Integral</text>
    </g>
    <g fill="rgb(255,204,0)" text-rendering="geometricPrecision" shape-rendering="geometricPrecision" transform="matrix(1,0,0,1,-5,15)" stroke="rgb(255,204,0)">
      <rect x="176.2461" width="73.4609" height="30" y="61" clip-path="url(#clipPath2)" stroke="none"/>
    </g>
    <g text-rendering="geometricPrecision" stroke-miterlimit="1.45" shape-rendering="geometricPrecision" transform="matrix(1,0,0,1,-5,15)" stroke-linecap="butt">
      <rect fill="none" x="176.2461" width="73.4609" height="30" y="61" clip-path="url(#clipPath2)"/>
      <text x="183.2461" xml:space="preserve" y="80.1543" clip-path="url(#clipPath2)" font-family="sans-serif" stroke="none">Fractional</text>
    </g>
    <g fill="rgb(255,204,0)" text-rendering="geometricPrecision" shape-rendering="geometricPrecision" transform="matrix(1,0,0,1,-5,15)" stroke="rgb(255,204,0)">
      <rect x="215.7902" width="62.1934" height="30" y="122" clip-path="url(#clipPath2)" stroke="none"/>
    </g>
    <g text-rendering="geometricPrecision" stroke-miterlimit="1.45" shape-rendering="geometricPrecision" transform="matrix(1,0,0,1,-5,15)" stroke-linecap="butt">
      <rect fill="none" x="215.7902" width="62.1934" height="30" y="122" clip-path="url(#clipPath2)"/>
      <text x="222.7902" xml:space="preserve" y="141.1543" clip-path="url(#clipPath2)" font-family="sans-serif" stroke="none">Floating</text>
    </g>
    <g fill="rgb(255,204,0)" text-rendering="geometricPrecision" shape-rendering="geometricPrecision" transform="matrix(1,0,0,1,-5,15)" stroke="rgb(255,204,0)">
      <rect x="119.5948" width="66.1953" height="30" y="122" clip-path="url(#clipPath2)" stroke="none"/>
    </g>
    <g text-rendering="geometricPrecision" stroke-miterlimit="1.45" shape-rendering="geometricPrecision" transform="matrix(1,0,0,1,-5,15)" stroke-linecap="butt">
      <rect fill="none" x="119.5948" width="66.1953" height="30" y="122" clip-path="url(#clipPath2)"/>
      <text x="126.5948" xml:space="preserve" y="141.1543" clip-path="url(#clipPath2)" font-family="sans-serif" stroke="none">RealFrac</text>
    </g>
    <g fill="rgb(255,204,0)" text-rendering="geometricPrecision" shape-rendering="geometricPrecision" transform="matrix(1,0,0,1,-5,15)" stroke="rgb(255,204,0)">
      <rect x="164.7672" width="70.0449" height="30" y="183" clip-path="url(#clipPath2)" stroke="none"/>
    </g>
    <g text-rendering="geometricPrecision" stroke-miterlimit="1.45" shape-rendering="geometricPrecision" transform="matrix(1,0,0,1,-5,15)" stroke-linecap="butt">
      <rect fill="none" x="164.7672" width="70.0449" height="30" y="183" clip-path="url(#clipPath2)"/>
      <text x="171.7672" xml:space="preserve" y="202.1543" clip-path="url(#clipPath2)" font-family="sans-serif" stroke="none">RealFloat</text>
      <path fill="none" d="M191.8409 30 L191.8409 45.5 L136.1437 45.5 L136.1437 52.9697" clip-path="url(#clipPath2)"/>
      <path d="M136.1437 60.9697 L141.1437 48.9697 L136.1437 51.9697 L131.1437 48.9697 Z" clip-path="url(#clipPath2)" stroke="none"/>
      <path fill="none" d="M115.9397 30 L115.9396 52.9697" clip-path="url(#clipPath2)"/>
      <path d="M115.9396 60.9697 L120.9396 48.9697 L115.9396 51.9697 L110.9397 48.9697 Z" clip-path="url(#clipPath2)" stroke="none"/>
      <path fill="none" d="M115.9396 91 L115.9396 106.5 L74.4768 106.5 L74.4768 113.9697" clip-path="url(#clipPath2)"/>
      <path d="M74.4768 121.9697 L79.4768 109.9697 L74.4768 112.9697 L69.4768 109.9697 Z" clip-path="url(#clipPath2)" stroke="none"/>
      <path fill="none" d="M44.2413 91 L44.2414 113.9697" clip-path="url(#clipPath2)"/>
      <path d="M44.2415 121.9697 L49.2414 109.9697 L44.2414 112.9697 L39.2414 109.9698 Z" clip-path="url(#clipPath2)" stroke="none"/>
      <path fill="none" d="M212.9766 30 L212.9766 52.9697" clip-path="url(#clipPath2)"/>
      <path d="M212.9766 60.9697 L217.9766 48.9697 L212.9766 51.9697 L207.9766 48.9697 Z" clip-path="url(#clipPath2)" stroke="none"/>
      <path fill="none" d="M231.3418 91 L231.3418 106.5 L246.8869 106.5 L246.8869 113.9697" clip-path="url(#clipPath2)"/>
      <path d="M246.8869 121.9697 L251.8869 109.9697 L246.8869 112.9697 L241.8869 109.9697 Z" clip-path="url(#clipPath2)" stroke="none"/>
      <path fill="none" d="M136.1437 91 L136.1437 113.9697" clip-path="url(#clipPath2)"/>
      <path d="M136.1436 121.9697 L141.1437 109.9697 L136.1437 112.9697 L131.1437 109.9697 Z" clip-path="url(#clipPath2)" stroke="none"/>
      <path fill="none" d="M194.6114 91 L194.6114 106.5 L169.2413 106.5 L169.2413 113.9697" clip-path="url(#clipPath2)"/>
      <path d="M169.2413 121.9697 L174.2413 109.9697 L169.2413 112.9697 L164.2413 109.9697 Z" clip-path="url(#clipPath2)" stroke="none"/>
      <path fill="none" d="M246.8869 152 L246.8869 167.5 L217.3009 167.5 L217.3009 174.9697" clip-path="url(#clipPath2)"/>
      <path d="M217.3009 182.9697 L222.3009 170.9697 L217.3009 173.9697 L212.3009 170.9697 Z" clip-path="url(#clipPath2)" stroke="none"/>
      <path fill="none" d="M152.6925 152 L152.6925 167.5 L182.2785 167.5 L182.2785 174.9697" clip-path="url(#clipPath2)"/>
      <path d="M182.2785 182.9697 L187.2785 170.9697 L182.2785 173.9697 L177.2785 170.9697 Z" clip-path="url(#clipPath2)" stroke="none"/>
    </g>
  </g>
</svg>
